<?xml version="1.0" encoding="UTF-8" standalone="no"?>
<svg
   xmlns:dc="http://purl.org/dc/elements/1.1/"
   xmlns:cc="http://creativecommons.org/ns#"
   xmlns:rdf="http://www.w3.org/1999/02/22-rdf-syntax-ns#"
   xmlns:svg="http://www.w3.org/2000/svg"
   xmlns="http://www.w3.org/2000/svg"
   xmlns:xlink="http://www.w3.org/1999/xlink"
   xmlns:sodipodi="http://sodipodi.sourceforge.net/DTD/sodipodi-0.dtd"
   xmlns:inkscape="http://www.inkscape.org/namespaces/inkscape"
   width="32"
   height="32"
   viewBox="0 0 8.4666665 8.4666669"
   version="1.1"
   id="svg8"
   inkscape:version="1.0.1 (3bc2e813f5, 2020-09-07, custom)"
   sodipodi:docname="logo.svg"
   inkscape:export-filename="/home/victor/MEGA/Google Drive/Everything else/Profile pictures/smile2.png"
   inkscape:export-xdpi="1536.0001"
   inkscape:export-ydpi="1536.0001">
  <defs
     id="defs2">
    <linearGradient
       inkscape:collect="always"
       xlink:href="#linearGradient9209"
       id="linearGradient12830"
       x1="432"
       y1="942.51965"
       x2="464"
       y2="910.51965"
       gradientUnits="userSpaceOnUse"
       gradientTransform="translate(-432,-910.51969)" />
    <linearGradient
       id="linearGradient9209"
       inkscape:collect="always">
      <stop
         id="stop9205"
         offset="0"
         style="stop-color:#0064d9;stop-opacity:1" />
      <stop
         id="stop9207"
         offset="1"
         style="stop-color:#22c8ff;stop-opacity:1" />
    </linearGradient>
  </defs>
  <sodipodi:namedview
     id="base"
     pagecolor="#ffffff"
     bordercolor="#666666"
     borderopacity="1.0"
     inkscape:pageopacity="0.0"
     inkscape:pageshadow="2"
     inkscape:zoom="22.4"
     inkscape:cx="16.564312"
     inkscape:cy="21.300333"
     inkscape:document-units="mm"
     inkscape:current-layer="layer1"
     showgrid="true"
     units="px"
     inkscape:window-width="1912"
     inkscape:window-height="1205"
     inkscape:window-x="2560"
     inkscape:window-y="0"
     inkscape:window-maximized="0"
     inkscape:document-rotation="0">
    <inkscape:grid
       type="xygrid"
       id="grid815"
       empspacing="4" />
    <inkscape:grid
       type="xygrid"
       id="grid817"
       empspacing="1"
       originy="0.13229167"
       originx="0.13229167"
       dotted="true" />
  </sodipodi:namedview>
  <metadata
     id="metadata5">
    <rdf:RDF>
      <cc:Work
         rdf:about="">
        <dc:format>image/svg+xml</dc:format>
        <dc:type
           rdf:resource="http://purl.org/dc/dcmitype/StillImage" />
        <dc:title></dc:title>
      </cc:Work>
    </rdf:RDF>
  </metadata>
  <g
     inkscape:label="Layer 1"
     inkscape:groupmode="layer"
     id="layer1"
     transform="translate(0,-288.53332)">
    <path
       id="rect12821"
       style="opacity:1;fill:url(#linearGradient12830);fill-opacity:1;stroke:none;stroke-width:4;stroke-linecap:round;stroke-linejoin:round;stroke-miterlimit:4;stroke-dasharray:none;stroke-dashoffset:0;stroke-opacity:1;paint-order:normal"
       d="M 15.757812 0.001953125 A 16.000651 15.99903 0 0 0 0 15.996094 A 16.000651 15.99903 0 0 0 0 16 A 16.000651 15.99903 0 0 0 16 32 A 16.000651 15.99903 0 0 0 32 16 A 16.000651 15.99903 0 0 0 32 15.998047 A 16.000651 15.99903 0 0 0 16 0.001953125 A 16.000651 15.99903 0 0 0 15.757812 0.001953125 z "
       transform="matrix(0.26458333,0,0,0.26458333,0,288.53332)" />
    <path
       id="rect824-64-5-2"
       style="font-style:normal;font-variant:normal;font-weight:normal;font-stretch:normal;font-size:4.06419px;line-height:1.25;font-family:Contemporary;-inkscape-font-specification:Contemporary;letter-spacing:0px;word-spacing:0px;opacity:1;fill:#000000;fill-opacity:1;stroke:none;stroke-width:1.36198;stroke-linecap:round;stroke-linejoin:round;stroke-miterlimit:4;stroke-dasharray:none;stroke-dashoffset:0;stroke-opacity:1;paint-order:normal"
       d="M 16.234375 12.005859 C 14.374375 11.892474 12.638599 13.091937 12.136719 14.964844 L 8.2539062 29.453125 L 8.1328125 29.908203 L 8.1269531 29.927734 A 16.000651 15.99903 0 0 0 16 32 A 16.000651 15.99903 0 0 0 31.992188 16.5 L 31.974609 16.5 A 16 16 0 0 0 31.986328 16.142578 L 17.035156 12.136719 C 16.767596 12.064908 16.500065 12.022111 16.234375 12.005859 z "
       transform="matrix(0.26458333,0,0,0.26458333,0,288.53332)" />
    <g
       aria-label=":)"
       transform="rotate(15)"
       id="text881-9-9-9"
       style="font-style:normal;font-variant:normal;font-weight:normal;font-stretch:normal;font-size:3.59486px;line-height:1.25;font-family:'Noto Sans';-inkscape-font-specification:'Noto Sans';letter-spacing:0px;word-spacing:0px;fill:#ffffff;fill-opacity:1;stroke:none;stroke-width:0.0898716">
      <path
         d="m 79.856341,282.53876 q 0,-0.1366 0.06471,-0.19053 0.06471,-0.0539 0.154579,-0.0539 0.09347,0 0.158174,0.0539 0.0683,0.0539 0.0683,0.19053 0,0.12942 -0.0683,0.18693 -0.06471,0.0575 -0.158174,0.0575 -0.08987,0 -0.154579,-0.0575 -0.06471,-0.0575 -0.06471,-0.18693 z m 0,1.5386 q 0,-0.13301 0.06471,-0.18693 0.06471,-0.0539 0.154579,-0.0539 0.09347,0 0.158174,0.0539 0.0683,0.0539 0.0683,0.18693 0,0.12942 -0.0683,0.18693 -0.06471,0.0575 -0.158174,0.0575 -0.08987,0 -0.154579,-0.0575 -0.06471,-0.0575 -0.06471,-0.18693 z"
         style="font-style:normal;font-variant:normal;font-weight:normal;font-stretch:normal;font-family:'Noto Sans';-inkscape-font-specification:'Noto Sans';stroke-width:0.0898716"
         id="path4492" />
      <path
         d="m 81.495596,283.28649 q 0,0.43498 -0.129415,0.83761 -0.12582,0.39902 -0.399029,0.71537 h -0.294779 q 0.248046,-0.33791 0.373866,-0.73694 0.129415,-0.40263 0.129415,-0.81963 0,-0.42779 -0.129415,-0.83401 -0.12582,-0.40622 -0.377461,-0.74414 h 0.298374 q 0.273209,0.32714 0.399029,0.73695 0.129415,0.40622 0.129415,0.84479 z"
         style="font-style:normal;font-variant:normal;font-weight:normal;font-stretch:normal;font-family:'Noto Sans';-inkscape-font-specification:'Noto Sans';stroke-width:0.0898716"
         id="path4494" />
    </g>
  </g>
</svg>
