<?xml version="1.0" encoding="UTF-8" standalone="no"?>
<svg
   xmlns:dc="http://purl.org/dc/elements/1.1/"
   xmlns:cc="http://creativecommons.org/ns#"
   xmlns:rdf="http://www.w3.org/1999/02/22-rdf-syntax-ns#"
   xmlns:svg="http://www.w3.org/2000/svg"
   xmlns="http://www.w3.org/2000/svg"
   xmlns:sodipodi="http://sodipodi.sourceforge.net/DTD/sodipodi-0.dtd"
   xmlns:inkscape="http://www.inkscape.org/namespaces/inkscape"
   height="16"
   width="16"
   version="1.1"
   id="svg5"
   sodipodi:docname="im-ban-user.svg"
   inkscape:version="0.92.2 2405546, 2018-03-11">
  <metadata
     id="metadata9">
    <rdf:RDF>
      <cc:Work
         rdf:about="">
        <dc:format>image/svg+xml</dc:format>
        <dc:type
           rdf:resource="http://purl.org/dc/dcmitype/StillImage" />
        <dc:title></dc:title>
      </cc:Work>
    </rdf:RDF>
  </metadata>
  <defs
     id="defs7" />
  <sodipodi:namedview
     id="namedview1"
     showgrid="true"
     inkscape:zoom="20.85965"
     inkscape:cx="-8.8502412"
     inkscape:cy="4.3622447"
     inkscape:window-width="1920"
     inkscape:window-height="1046"
     inkscape:window-x="0"
     inkscape:window-y="0"
     inkscape:window-maximized="1"
     inkscape:current-layer="svg5">
    <inkscape:grid
       type="xygrid"
       id="grid1px"
       empspacing="4" />
    <inkscape:grid
       type="xygrid"
       id="grid1pxdot"
       empspacing="1"
       dotted="true"
       originy="0.5"
       originx="0.5" />
  </sodipodi:namedview>
  <path
     style="opacity:0.98999999;fill:#000000;fill-opacity:1;fill-rule:nonzero;stroke:none;stroke-width:1;stroke-linecap:round;stroke-linejoin:round;stroke-miterlimit:4;stroke-dasharray:none;stroke-dashoffset:0;stroke-opacity:1"
     d="M 8 1 C 5.7967833 1 4 2.7967833 4 5 C 4 7.2032167 5.7967833 9 8 9 C 8.0026463 9 8.0051674 9.0000052 8.0078125 9 A 5 5 0 0 1 11.421875 7.0390625 C 11.780724 6.43973 12 5.7469338 12 5 C 12 2.7967833 10.203217 1 8 1 z "
     id="path4139" />
  <path
     style="opacity:0.98999999;fill:#000000;fill-opacity:1;fill-rule:nonzero;stroke:none;stroke-width:1;stroke-linecap:round;stroke-linejoin:round;stroke-miterlimit:4;stroke-dasharray:none;stroke-dashoffset:0;stroke-opacity:1"
     d="M 7.40625 10.027344 C 4.224774 10.301433 1.5907323 12.719338 1.0917969 15.923828 A 0.50005 0.50005 0 0 0 1.5859375 16.5 L 9.8339844 16.5 A 5 5 0 0 1 7 12 A 5 5 0 0 1 7.40625 10.027344 z M 14.916016 16.052734 A 5 5 0 0 1 14.167969 16.5 L 14.419922 16.5 A 0.50005 0.50005 0 0 0 14.916016 16.052734 z "
     id="path4141" />
  <path
     style="opacity:1;fill:#000000;fill-opacity:1;stroke:none;stroke-width:2;stroke-linecap:round;stroke-linejoin:round;stroke-miterlimit:4;stroke-dasharray:none;stroke-opacity:1;paint-order:normal"
     d="M 12 8 A 4 4 0 0 0 8 12 A 4 4 0 0 0 12 16 A 4 4 0 0 0 16 12 A 4 4 0 0 0 12 8 z M 10.494141 9.9941406 A 0.50005 0.50005 0 0 1 10.853516 10.146484 L 12 11.292969 L 13.146484 10.146484 A 0.50005 0.50005 0 0 1 13.490234 9.9960938 A 0.50005 0.50005 0 0 1 13.853516 10.853516 L 12.707031 12 L 13.853516 13.146484 A 0.50005 0.50005 0 1 1 13.146484 13.853516 L 12 12.707031 L 10.853516 13.853516 A 0.50005 0.50005 0 1 1 10.146484 13.146484 L 11.292969 12 L 10.146484 10.853516 A 0.50005 0.50005 0 0 1 10.494141 9.9941406 z "
     id="path857" />
  <circle
     style="opacity:1;fill:#000000;fill-opacity:1;stroke:none;stroke-width:2;stroke-linecap:round;stroke-linejoin:round;stroke-miterlimit:4;stroke-dasharray:none;stroke-opacity:1;paint-order:normal"
     id="path931"
     cx="12"
     cy="12"
     r="0" />
</svg>
