<?xml version="1.0" encoding="UTF-8" standalone="no"?>
<svg
   xmlns:dc="http://purl.org/dc/elements/1.1/"
   xmlns:cc="http://creativecommons.org/ns#"
   xmlns:rdf="http://www.w3.org/1999/02/22-rdf-syntax-ns#"
   xmlns:svg="http://www.w3.org/2000/svg"
   xmlns="http://www.w3.org/2000/svg"
   xmlns:xlink="http://www.w3.org/1999/xlink"
   xmlns:sodipodi="http://sodipodi.sourceforge.net/DTD/sodipodi-0.dtd"
   xmlns:inkscape="http://www.inkscape.org/namespaces/inkscape"
   width="256"
   height="256.0036"
   viewBox="0 0 67.733332 67.734288"
   version="1.1"
   id="svg8"
   inkscape:version="1.0.2 (e86c870879, 2021-01-15)"
   sodipodi:docname="blog-vt.svg"
   inkscape:export-filename="/home/victor/MEGA/Google Drive/Everything else/Profile pictures/smile2.png"
   inkscape:export-xdpi="1536.0001"
   inkscape:export-ydpi="1536.0001">
  <defs
     id="defs2">
    <linearGradient
       inkscape:collect="always"
       xlink:href="#linearGradient9209"
       id="linearGradient12830"
       x1="432"
       y1="942.51965"
       x2="464"
       y2="910.51965"
       gradientUnits="userSpaceOnUse"
       gradientTransform="matrix(2.1166608,0,0,2.1164433,-914.39865,-1638.5235)" />
    <linearGradient
       id="linearGradient9209"
       inkscape:collect="always">
      <stop
         id="stop9205"
         offset="0"
         style="stop-color:#0064d9;stop-opacity:1" />
      <stop
         id="stop9207"
         offset="1"
         style="stop-color:#22c8ff;stop-opacity:1" />
    </linearGradient>
  </defs>
  <sodipodi:namedview
     id="base"
     pagecolor="#ffffff"
     bordercolor="#666666"
     borderopacity="1.0"
     inkscape:pageopacity="0.0"
     inkscape:pageshadow="2"
     inkscape:zoom="1.979899"
     inkscape:cx="113.88667"
     inkscape:cy="196.97204"
     inkscape:document-units="mm"
     inkscape:current-layer="layer1"
     showgrid="true"
     units="px"
     inkscape:window-width="1920"
     inkscape:window-height="1044"
     inkscape:window-x="2560"
     inkscape:window-y="0"
     inkscape:window-maximized="1"
     inkscape:document-rotation="0"
     fit-margin-top="0"
     fit-margin-left="0"
     fit-margin-right="0"
     fit-margin-bottom="0">
    <inkscape:grid
       type="xygrid"
       id="grid815"
       empspacing="4"
       originx="-0.00016933288"
       originy="0.0018800001" />
    <inkscape:grid
       type="xygrid"
       id="grid817"
       empspacing="1"
       originy="0.13417167"
       originx="0.13212233"
       dotted="true" />
  </sodipodi:namedview>
  <metadata
     id="metadata5">
    <rdf:RDF>
      <cc:Work
         rdf:about="">
        <dc:format>image/svg+xml</dc:format>
        <dc:type
           rdf:resource="http://purl.org/dc/dcmitype/StillImage" />
        <dc:title></dc:title>
      </cc:Work>
    </rdf:RDF>
  </metadata>
  <g
     inkscape:label="Layer 1"
     inkscape:groupmode="layer"
     id="layer1"
     transform="translate(-1.6933288e-4,-288.53144)">
    <path
       style="opacity:1;fill:url(#linearGradient12830);fill-opacity:1;stroke:none;stroke-width:1.05833;stroke-linecap:round;stroke-linejoin:round;stroke-miterlimit:4;stroke-dasharray:none;stroke-dashoffset:0;stroke-opacity:1;paint-order:normal"
       d="m 33.865436,288.53536 a 33.866571,33.863092 0 0 0 -0.114408,0.002 l -33.75061866779,8e-5 -7.999977e-5,33.85875 -1.5999956e-4,33.86738 67.73317266712,-8e-5 8.1e-5,-33.86714 8e-5,-33.85899 -33.783909,8e-5 a 33.866571,33.863092 0 0 0 -0.0824,-0.006 z"
       id="rect12821"
       inkscape:connector-curvature="0"
       inkscape:export-filename="/home/victor/newcontemporary.png"
       inkscape:export-xdpi="2165.5593"
       inkscape:export-ydpi="2165.5593" />
    <path
       inkscape:connector-curvature="0"
       style="font-style:normal;font-variant:normal;font-weight:normal;font-stretch:normal;font-size:4.06419px;line-height:1.25;font-family:Contemporary;-inkscape-font-specification:Contemporary;letter-spacing:0px;word-spacing:0px;opacity:1;fill:#000000;fill-opacity:1;stroke:none;stroke-width:0.360359;stroke-linecap:round;stroke-linejoin:round;stroke-miterlimit:4;stroke-dasharray:none;stroke-dashoffset:0;stroke-opacity:1;paint-order:normal"
       d="m 34.361475,313.94924 c -3.936989,-0.23998 -7.611047,2.29863 -8.673356,6.26254 l -8.218592,30.66364 -0.256327,0.9631 -1.186473,4.42721 h 13.605325 4.497904 33.60199 v -23.2809 -9.52396 h -0.05376 a 33.866572,33.863093 0 0 0 0.0248,-0.75672 l -31.646555,-8.47814 c -0.566335,-0.15199 -1.132604,-0.24238 -1.69498,-0.27677 z"
       id="rect824-64-5-2"
       inkscape:export-filename="/home/victor/newcontemporary.png"
       inkscape:export-xdpi="2165.5593"
       inkscape:export-ydpi="2165.5593" />
    <g
       aria-label=":)"
       transform="matrix(0.96597545,0.25880576,-0.25883234,0.9658762,0,0)"
       id="text881-9-9-9"
       style="font-style:normal;font-variant:normal;font-weight:normal;font-stretch:normal;font-size:28.7574px;line-height:1.25;font-family:'Noto Sans';-inkscape-font-specification:'Noto Sans';letter-spacing:0px;word-spacing:0px;fill:#ffffff;fill-opacity:1;stroke:none;stroke-width:0.0898716">
      <path
         d="m 116.10744,309.41673 q 0,-1.09278 0.51763,-1.52414 0.51763,-0.43136 1.23657,-0.43136 0.74769,0 1.26532,0.43136 0.54639,0.43136 0.54639,1.52414 0,1.03527 -0.54639,1.49539 -0.51763,0.46012 -1.26532,0.46012 -0.71894,0 -1.23657,-0.46012 -0.51763,-0.46012 -0.51763,-1.49539 z m 0,12.30817 q 0,-1.06402 0.51763,-1.49538 0.51763,-0.43136 1.23657,-0.43136 0.74769,0 1.26532,0.43136 0.54639,0.43136 0.54639,1.49538 0,1.03527 -0.54639,1.49539 -0.51763,0.46012 -1.26532,0.46012 -0.71894,0 -1.23657,-0.46012 -0.51763,-0.46012 -0.51763,-1.49539 z"
         style="font-style:normal;font-variant:normal;font-weight:normal;font-stretch:normal;font-family:'Noto Sans';-inkscape-font-specification:'Noto Sans';stroke-width:0.0898716"
         id="path1594" />
      <path
         d="m 129.2208,315.39827 q 0,3.47965 -1.03527,6.70048 -1.0065,3.19207 -3.19207,5.72272 h -2.3581 q 1.98426,-2.70319 2.99077,-5.89527 1.03526,-3.22083 1.03526,-6.55668 0,-3.42213 -1.03526,-6.67172 -1.00651,-3.24959 -3.01953,-5.95278 h 2.38686 q 2.18557,2.61692 3.19207,5.89526 1.03527,3.24959 1.03527,6.75799 z"
         style="font-style:normal;font-variant:normal;font-weight:normal;font-stretch:normal;font-family:'Noto Sans';-inkscape-font-specification:'Noto Sans';stroke-width:0.0898716"
         id="path1596" />
    </g>
  </g>
</svg>
